PathFileType	4	(X/Y/Z)	/Users/mathieubourgeois/Desktop/Analyse/Traitement/Sujet_02/Transformed_Static_Sujet_02_Tpose.trc
DataRate	CameraRate	NumFrames	NumMarkers	Units	OrigDataRate	OrigDataStartFrame	OrigNumFrames
120.000000	120.000000	5	36	mm	120.000000	77	308
Frame#	Time	RFHD			RANE			STRN			LANI			LKNE			T10			RHUM			RWRB			C7			LFWT			LTOE			RTOE			LWRA			LBWT			RBWT			RFWT			LKNI			RKNI			RKNE			LANE			RANI			LHEE			RHEE			LHUM			LRAD			RRAD			RWRA			LWRB			LFHD			LBHD			RBHD			RSHO			LSHO			CLAV			LCAR			RCAR			
		X1	Y1	Z1	X2	Y2	Z2	X3	Y3	Z3	X4	Y4	Z4	X5	Y5	Z5	X6	Y6	Z6	X7	Y7	Z7	X8	Y8	Z8	X9	Y9	Z9	X10	Y10	Z10	X11	Y11	Z11	X12	Y12	Z12	X13	Y13	Z13	X14	Y14	Z14	X15	Y15	Z15	X16	Y16	Z16	X17	Y17	Z17	X18	Y18	Z18	X19	Y19	Z19	X20	Y20	Z20	X21	Y21	Z21	X22	Y22	Z22	X23	Y23	Z23	X24	Y24	Z24	X25	Y25	Z25	X26	Y26	Z26	X27	Y27	Z27	X28	Y28	Z28	X29	Y29	Z29	X30	Y30	Z30	X31	Y31	Z31	X32	Y32	Z32	X33	Y33	Z33	X34	Y34	Z34	X35	Y35	Z35	X36	Y36	Z36	

78	0.6416666666666666	-159.2787322998047	1797.009155273438	373.8744812011718	-226.0655059814453	101.9826812744141	237.4513397216797	-43.45473098754888	1414.479614257812	425.7478637695311	76.69860076904294	120.4287261962891	269.6372680664062	155.3170166015625	557.599365234375	246.9853668212891	-44.13909530639651	1380.927612304688	176.3109893798827	-499.9331665039063	1505.9736328125	233.277374267578	-778.2485961914062	1586.4453125	244.7800140380858	-48.36870193481448	1620.888305664062	225.6304779052734	88.18760681152338	1109.4638671875	409.1674499511718	172.8920898437499	59.12326812744143	457.3103332519531	-252.5386657714844	59.81352233886722	459.5367126464843	711.9940185546875	1498.040649414062	318.8072814941406	15.71741867065427	1144.164672851562	225.7428894042968	-105.4658737182617	1146.740112304688	225.7180938720703	-189.0383758544922	1121.650146484375	401.5705566406249	61.45779800415036	517.2955322265625	279.7842102050781	-132.7237548828125	527.6376953125	289.7846069335937	-223.0559692382813	580.0797729492188	251.8724365234374	160.178726196289	101.7424011230469	229.7580871582032	-145.4790496826172	119.8757095336914	279.00732421875	105.5809707641601	70.51018524169923	177.3727416992188	-161.933090209961	64.60420227050783	186.719970703125	429.7590332031249	1470.163208007812	326.5367126464843	437.6825866699218	1522.7021484375	276.9263916015624	-504.7883911132813	1463.814208984375	300.565704345703	-773.7592163085938	1525.763671875	218.1157836914061	707.1287841796875	1565.635986328125	342.326416015625	-11.66086292266851	1798.725341796875	415.5856933593749	25.93662834167477	1747.912719726562	279.316925048828	-133.8871154785157	1743.115966796875	250.5080108642577	-213.0945587158203	1594.818115234375	260.1890869140624	120.9015960693359	1617.007934570312	287.390167236328	-33.86675262451177	1589.661743164062	381.5862426757811	816.4331665039062	1531.194702148438	303.4375305175781	-882.918701171875	1554.72705078125	197.4530334472654	
79	0.65	-159.173080444336	1797.051391601562	373.9572448730468	-226.0735473632813	101.9784469604492	237.4645690917968	-43.38221359252935	1414.45361328125	425.7935180664061	76.689338684082	120.4201126098633	269.6336364746094	155.2923736572265	557.6034545898438	246.9789276123047	-44.16710662841799	1380.933227539062	176.3714447021484	-499.9003906250001	1506.02587890625	233.5858764648436	-778.1967163085938	1586.598266601562	245.2614288330076	-48.34012603759768	1620.886108398438	225.7016296386718	88.18505096435541	1109.445434570312	409.1853332519531	172.8910064697265	59.12356567382815	457.3163146972656	-252.5389862060547	59.80418395996097	459.5484313964843	712.0791625976562	1498.0390625	318.5191955566406	15.65797424316403	1144.171875	225.8032684326171	-105.5192108154297	1146.73974609375	225.8349304199218	-189.0285034179688	1121.626342773438	401.7019348144531	61.44448471069332	517.2833862304688	279.8032531738281	-132.7340393066407	527.6469116210938	289.8215332031249	-223.0917510986328	580.0796508789062	251.9794158935546	160.1667327880859	101.7361526489258	229.7682037353516	-145.4930267333985	119.8744888305664	279.0243835449219	105.5795516967773	70.50969696044923	177.3674621582031	-161.942367553711	64.61653900146486	186.7266693115234	429.9083557128906	1469.617919921875	326.0231933593749	437.7294921874999	1522.682373046875	276.7647399902343	-504.7409667968751	1463.83642578125	300.8523559570311	-773.7870483398438	1525.8544921875	218.6273651123045	707.1758422851562	1565.607421875	342.1619567871094	-11.54051685333257	1798.70361328125	415.6782836914061	26.02580070495602	1747.843627929688	279.3819580078124	-133.8186187744141	1743.108276367188	250.5807342529295	-213.0468902587891	1594.837280273438	260.3527221679686	120.9609146118164	1616.973022460938	287.4042358398436	-33.77635955810552	1589.619873046875	381.6480712890624	816.4838256835938	1531.368041992188	303.20263671875	-882.9004516601562	1554.885620117188	198.0247192382811	
80	0.6583333333333333	-159.021957397461	1797.0537109375	374.0524291992186	-226.0863037109375	101.9811553955078	237.4762725830078	-43.30489730834966	1414.42431640625	425.8243103027343	76.69483947753903	120.4035034179688	269.6387023925781	155.2655181884765	557.5902709960938	246.9645233154297	-44.18799972534182	1380.920166015625	176.446807861328	-499.8778381347657	1506.045654296875	233.8273315429686	-778.134521484375	1586.684814453125	245.7039794921873	-48.31548309326175	1620.906372070312	225.7837982177734	88.19992828369135	1109.450561523438	409.2038879394531	172.9029083251953	59.11125183105472	457.3192749023438	-252.5407867431641	59.804801940918	459.5513000488281	712.1204223632812	1498.041870117188	318.3385009765625	15.58165073394773	1144.178833007812	225.8553161621093	-105.5870971679688	1146.748413085938	225.9435577392578	-189.0230255126954	1121.582885742188	401.8393249511718	61.43091201782223	517.2770385742188	279.8234558105468	-132.7608642578125	527.6524047851562	289.8819274902343	-223.1160278320313	580.0692749023438	252.073013305664	160.1530303955078	101.7435989379883	229.7663726806641	-145.4963836669922	119.8769607543945	279.0178527832031	105.5712966918945	70.50127410888673	177.3829498291016	-161.932373046875	64.61624908447267	186.7213287353515	429.9811401367187	1469.55615234375	325.8627624511718	437.7781372070312	1522.666748046875	276.5861511230468	-504.6695251464844	1463.86962890625	301.1334533691405	-773.7608032226562	1525.964965820312	219.1949157714842	707.2178955078125	1565.578491210938	342.00048828125	-11.42066955566411	1798.645141601562	415.741973876953	26.14277839660641	1747.872192382812	279.5117797851561	-133.7433471679688	1743.102905273438	250.6677856445311	-213.021240234375	1594.867309570312	260.5016784667968	121.0108642578125	1616.9248046875	287.4085693359374	-33.66845703125005	1589.591186523438	381.7257995605468	816.5657348632812	1531.491333007812	302.9453125	-882.8944702148438	1555.05126953125	198.6539764404295	
81	0.6666666666666666	-158.9100494384766	1797.07958984375	374.1611328124999	-226.0770721435547	101.9922790527344	237.4814910888672	-43.22747039794927	1414.397705078125	425.8497924804686	76.69190979003903	120.4120635986328	269.6402282714844	155.2488861083984	557.6033325195312	246.9416046142578	-44.23397064208987	1380.924560546875	176.5106353759765	-499.8390502929688	1506.056396484375	234.0901794433592	-778.0599975585938	1586.774291992188	246.1963500976561	-48.27891540527347	1620.916381835938	225.8429718017577	88.2140274047851	1109.442993164062	409.2175598144531	172.8873291015624	59.11098861694339	457.3258972167969	-252.5420379638672	59.78599929809573	459.5554809570312	712.1709594726562	1498.012329101562	318.1574096679688	15.52272891998288	1144.176025390625	225.8944549560546	-105.6553115844727	1146.757446289062	226.0503997802734	-189.0121154785157	1121.576049804688	402.0081176757812	61.41847229003903	517.2686157226562	279.8401489257812	-132.7750549316407	527.6480102539062	289.9472961425781	-223.1580657958985	580.0730590820312	252.1710052490234	160.1466217041015	101.7365264892578	229.765625	-145.4999389648438	119.8859405517578	279.0313110351562	105.5654144287109	70.49806976318361	177.3858642578125	-161.941146850586	64.63349914550783	186.7138671875	430.0407409667968	1469.486328125	325.7019653320312	437.8430175781249	1522.649780273438	276.4509887695312	-504.6065368652344	1463.889038085938	301.419219970703	-773.7467651367188	1526.024047851562	219.6508331298826	707.248291015625	1565.5498046875	341.8180236816406	-11.30589389801031	1798.624633789062	415.825714111328	26.22937583923336	1747.783203125	279.553009033203	-133.6554412841797	1743.103515625	250.7540130615233	-212.970443725586	1594.891967773438	260.6492614746093	121.0681228637695	1616.879272460938	287.3973999023436	-33.57786178588872	1589.56103515625	381.760528564453	816.6240844726562	1531.558837890625	302.7583312988281	-882.9194946289062	1555.171630859375	199.2521820068357	
82	0.675	-155.6631317138672	1800.183227539062	374.6456909179686	-226.082992553711	101.9822082519531	237.4869079589843	-43.15624237060552	1414.370361328125	425.8838500976561	76.70257568359372	120.4188919067383	269.6511840820312	155.2284088134765	557.6087646484375	246.910888671875	-44.28377532958987	1380.924194335938	176.5912475585937	-499.8143920898438	1506.09521484375	234.3549652099608	-777.9935913085938	1586.853515625	246.7261657714842	-48.23404693603518	1620.927734375	225.9029235839843	88.23998260498041	1109.443969726562	409.2106628417968	172.8842163085937	59.11874008178714	457.3279113769531	-252.5409851074219	59.78729629516604	459.5560302734374	712.2177124023438	1497.979125976562	317.962646484375	15.47753620147702	1144.195068359375	225.937271118164	-105.7354354858399	1146.7666015625	226.1557617187499	-189.0017852783204	1121.570922851562	402.1614379882812	61.41695022583004	517.2605590820312	279.8352966308593	-132.7822265625	527.6561279296875	289.9795532226562	-223.1782684326172	580.0817260742188	252.2516021728515	160.1583709716797	101.7525024414063	229.7613067626953	-145.4952239990235	119.886116027832	279.0263977050781	105.5693054199218	70.51678466796876	177.3790435791016	-161.9416046142578	64.64500427246095	186.7292175292968	430.0837402343749	1469.453979492188	325.5708618164062	437.8657531738281	1522.611206054688	276.3291625976562	-504.5423583984376	1463.905639648438	301.7034301757811	-773.749267578125	1526.098388671875	220.1044311523436	707.2805786132812	1565.510009765625	341.6956176757812	-11.17568492889409	1798.669189453125	415.939483642578	26.35320281982418	1747.707153320312	279.5941467285155	-133.5646209716797	1743.098876953125	250.8327331542967	-212.9292144775391	1594.955810546875	260.7760009765624	121.124526977539	1616.833129882812	287.3823242187499	-33.49132537841802	1589.539794921875	381.8289794921874	816.6702880859375	1531.6142578125	302.5908813476562	-882.9060668945312	1555.296997070312	199.882369995117	
